<svg fill="#ccfbf1" xmlns="http://www.w3.org/2000/svg" xmlns:xlink="http://www.w3.org/1999/xlink" xmlns:serif="http://www.serif.com/" viewBox="0 0 24 24" version="1.1" xml:space="preserve" style="" x="0px" y="0px" fill-rule="evenodd" clip-rule="evenodd" stroke-linejoin="round" stroke-miterlimit="2"><g><path d="M22.75,16l-0,-8c-0,-0.967 -0.783,-1.75 -1.75,-1.75l-8,0c-0.967,0 -1.75,0.783 -1.75,1.75l0,8c0,0.967 0.783,1.75 1.75,1.75l8,-0c0.967,-0 1.75,-0.783 1.75,-1.75Zm-1.5,-8l-0,8c-0,0.138 -0.112,0.25 -0.25,0.25c-0,0 -8,0 -8,0c-0.138,-0 -0.25,-0.112 -0.25,-0.25c0,-0 -0,-8 -0,-8c0,-0.138 0.112,-0.25 0.25,-0.25c0,0 8,-0 8,-0c0.138,0 0.25,0.112 0.25,0.25Z"/><path d="M16.75,3c-0,-0.966 -0.784,-1.75 -1.75,-1.75l-6,0c-0.966,0 -1.75,0.784 -1.75,1.75l0,6c0,0.966 0.784,1.75 1.75,1.75l6,0c0.966,-0 1.75,-0.784 1.75,-1.75l-0,-6Zm-1.5,-0l0,6c-0,0.138 -0.112,0.25 -0.25,0.25c-0,-0 -6,0 -6,0c-0.138,-0 -0.25,-0.112 -0.25,-0.25c0,-0 -0,-6 -0,-6c0,-0.138 0.112,-0.25 0.25,-0.25c0,0 6,-0 6,-0c0.138,0 0.25,0.112 0.25,0.25Z"/><path d="M5.75,12.5l-0,-1c-0,-0.967 -0.783,-1.75 -1.75,-1.75l-1,0c-0.967,0 -1.75,0.783 -1.75,1.75l0,1c0,0.967 0.783,1.75 1.75,1.75l1,-0c0.967,-0 1.75,-0.783 1.75,-1.75Zm-1.5,-1l-0,1c-0,0.138 -0.112,0.25 -0.25,0.25c-0,0 -1,0 -1,0c-0.138,-0 -0.25,-0.112 -0.25,-0.25c0,-0 -0,-1 -0,-1c0,-0.138 0.112,-0.25 0.25,-0.25c0,0 1,-0 1,-0c0.138,0 0.25,0.112 0.25,0.25Z"/><path d="M16.75,15c-0,-0.966 -0.784,-1.75 -1.75,-1.75l-6,-0c-0.966,0 -1.75,0.784 -1.75,1.75l0,6c0,0.966 0.784,1.75 1.75,1.75l6,0c0.966,-0 1.75,-0.784 1.75,-1.75l-0,-6Zm-1.5,-0l0,6c-0,0.138 -0.112,0.25 -0.25,0.25c-0,0 -6,0 -6,0c-0.138,-0 -0.25,-0.112 -0.25,-0.25c0,-0 -0,-6 -0,-6c0,-0.138 0.112,-0.25 0.25,-0.25c0,-0 6,-0 6,-0c0.138,0 0.25,0.112 0.25,0.25Z"/></g></svg>