<svg xmlns="http://www.w3.org/2000/svg" version="1.1" fill="#fdf4ff" viewBox="0.0 0.0 100.0 100.0">
 <path d="m95.852 47.688-34.375-31.25c-0.91406-0.83594-2.2383-1.0469-3.3672-0.54688-1.1328 0.5-1.8594 1.6211-1.8594 2.8594v13.445c-8.8008 0.007813-29.527 1.9844-43.07 18.984-6.7891 8.5234-9.0898 23.523-9.957 29.172l-0.066406 0.42188c-0.21094 1.3789 0.51172 2.7266 1.7773 3.3125 0.42188 0.19531 0.86719 0.28906 1.3086 0.28906 0.88672 0 1.7578-0.37891 2.3672-1.082 5.0234-5.8164 13.742-13.629 26.719-17.82 6.7578-2.1797 13.777-3.1094 20.914-2.7617v15.414c0 1.207 0.69531 2.3047 1.7891 2.8242 1.0859 0.51172 2.3828 0.35938 3.3203-0.40625l34.375-28.125c0.70313-0.57422 1.1211-1.4297 1.1445-2.3359 0.023437-0.91016-0.35156-1.7812-1.0234-2.3945z"/></svg>