<svg fill="#1d1d20" xmlns="http://www.w3.org/2000/svg" data-name="Layer 1" viewBox="0 0 32 40" x="0px" y="0px"><path d="M15.91,18.76h0a1,1,0,0,1-.71-.29L3.59,6.85a1,1,0,0,1-.3-.7,1,1,0,0,1,.3-.71L7.66,1.36a1,1,0,0,1,1.42,0L15.91,8.2l7-7a1,1,0,0,1,1.42,0l4.07,4.08a1,1,0,0,1,0,1.41L16.62,18.47A1,1,0,0,1,15.91,18.76ZM5.71,6.15l10.2,10.2L26.29,6,23.63,3.3l-7,7a1,1,0,0,1-.71.29h0a1,1,0,0,1-.71-.29L8.37,3.49Z"/><path d="M15.91,31.11h0a1,1,0,0,1-.71-.29L3.59,19.2a1,1,0,0,1-.3-.71,1,1,0,0,1,.3-.7l4.07-4.08a1,1,0,0,1,1.42,0l6.83,6.84,7-7a1,1,0,0,1,1.42,0l4.07,4.08a1,1,0,0,1,.3.7,1,1,0,0,1-.3.71L16.62,30.82A1.05,1.05,0,0,1,15.91,31.11ZM5.71,18.49,15.91,28.7,26.29,18.31l-2.66-2.66-7,7a1.05,1.05,0,0,1-.71.29h0a1,1,0,0,1-.71-.29L8.37,15.83Z"/></svg>