<svg xmlns="http://www.w3.org/2000/svg" version="1.1" viewBox="0.0 0.0 100.0 100.0" fill="#1d1d20">
 <path d="m53.02 93.699c-1.5508-0.003907-3.0781-0.37891-4.4531-1.0977-12.219-6.4023-22.484-15.988-29.707-27.738-7.1953-11.848-10.992-25.445-10.984-39.305-0.007812-3.2617 1.7031-6.2891 4.5-7.9688l7.7656-4.7227c4.4219-2.6914 10.188-1.293 12.883 3.125l4.8711 8.0078c2.6953 4.4219 1.2969 10.188-3.125 12.883l-4.0234 2.4453v0.003906c-1.1992 0.71875-1.7695 2.1562-1.3906 3.5039 2.6719 8.6328 7.4375 16.469 13.875 22.812 1.0195 0.97656 2.5703 1.1367 3.7656 0.38281l4.0195-2.4453c4.4219-2.6914 10.188-1.293 12.883 3.125l4.875 8.0078v0.003906c2.6953 4.4219 1.2969 10.188-3.125 12.883l-7.7617 4.7227c-1.4648 0.89844-3.1484 1.3711-4.8672 1.3711zm-28.02-75.949c-0.57031 0-1.1328 0.15625-1.6172 0.45703l-7.7578 4.7227c-0.92969 0.55078-1.4961 1.5508-1.5 2.6289-0.007812 12.715 3.4766 25.184 10.07 36.055 6.6289 10.777 16.043 19.562 27.25 25.438 0.99219 0.54297 2.1953 0.52344 3.1719-0.050781l7.7617-4.7266c0.70703-0.42969 1.2148-1.125 1.4102-1.9297 0.19922-0.80469 0.066407-1.6523-0.36328-2.3633l-4.8711-8.0078c-0.43359-0.71094-1.1289-1.2188-1.9336-1.4141-0.80469-0.19531-1.6562-0.0625-2.3633 0.37109l-4.0195 2.4453c-3.6445 2.2422-8.3438 1.7188-11.402-1.2734-7.1758-7.0625-12.488-15.797-15.461-25.414-1.2383-4.0859 0.46094-8.4922 4.125-10.688l4.0234-2.4453c1.4727-0.89844 1.9375-2.8203 1.043-4.2969l-4.8828-8.0039c-0.42969-0.71094-1.125-1.2188-1.9297-1.4141-0.24609-0.0625-0.5-0.089844-0.75391-0.089844zm41.902 34.633c0.75391-4.9102-0.47266-9.918-3.4062-13.93-2.9336-4.0078-7.3359-6.6914-12.246-7.4609-0.82031-0.125-1.6562 0.078124-2.3242 0.56641-0.66797 0.49219-1.1172 1.2266-1.2422 2.0469-0.26562 1.707 0.90234 3.3008 2.6094 3.5664 6.8242 1.0547 11.5 7.4375 10.449 14.258-0.12891 0.82031 0.074218 1.6562 0.56641 2.3242 0.48828 0.67188 1.2266 1.1172 2.043 1.2422 0.16016 0.023437 0.32031 0.035156 0.48438 0.035156 1.5312-0.007812 2.832-1.1328 3.0664-2.6484zm12.352 1.9062h0.003906c1.2617-8.1914-0.78125-16.551-5.6836-23.238-4.8984-6.6836-12.258-11.148-20.449-12.41-0.83203-0.16016-1.6953 0.03125-2.3906 0.51953-0.69141 0.49219-1.1523 1.2422-1.2812 2.082-0.12891 0.83984 0.089844 1.6953 0.60938 2.3672 0.51562 0.67578 1.2812 1.1094 2.125 1.207 6.5547 1.0117 12.438 4.582 16.355 9.9336 3.918 5.3477 5.5508 12.035 4.5391 18.586-0.14062 0.82812 0.054688 1.6797 0.54688 2.3594 0.48828 0.67969 1.2344 1.1328 2.0625 1.2617 0.83203 0.125 1.6758-0.089843 2.3477-0.59375 0.67188-0.50391 1.1094-1.2578 1.2188-2.0898zm12.352 1.9062h0.003906c1.7578-11.465-1.1055-23.156-7.9609-32.516-6.8555-9.3555-17.141-15.609-28.602-17.391-1.6719-0.19141-3.1914 0.97266-3.4453 2.6328-0.25 1.6641 0.85547 3.2266 2.5078 3.5391 9.8242 1.5312 18.641 6.8906 24.516 14.914 5.875 8.0195 8.3281 18.043 6.8203 27.867-0.14062 0.82812 0.054688 1.6797 0.54688 2.3594 0.49219 0.67969 1.2344 1.1328 2.0664 1.2617 0.82812 0.125 1.6758-0.089843 2.3438-0.59375 0.67188-0.50391 1.1133-1.2578 1.2227-2.0898z"/></svg>